<svg width="20" height="21" viewBox="0 0 20 21" fill="none" xmlns="http://www.w3.org/2000/svg">
	<path fill-rule="evenodd" clip-rule="evenodd" d="M13 0C16.866 0 20 3.13401 20 7V21H16H14H6H4H0V7C0 3.13401 3.13401 0 7 0H13ZM6 19V10H4V19H2V7L2.00462 6.78311C2.07286 5.1841 2.8921 3.77957 4.1186 2.91323C4.72551 5.23856 7.55048 7 10 7C12.4495 7 15.2745 5.23856 15.8814 2.91323C17.1631 3.81853 18 5.31153 18 7V19H16V10H14V19H6ZM13.9972 2.09945C13.7435 2.04811 13.4829 2.01597 13.2169 2.00462L13 2H7C6.65853 2 6.32505 2.03423 6.00281 2.09945C6.09385 3.71027 8.37642 5 10 5C11.6236 5 13.9061 3.71027 13.9972 2.09945Z" fill="white" />
</svg>
