<svg width="19" height="23" viewBox="0 0 19 23" fill="none" xmlns="http://www.w3.org/2000/svg">
	<path fill-rule="evenodd" clip-rule="evenodd" d="M0 9.28947C0 4.15904 4.15904 0 9.28947 0C14.4199 0 18.5789 4.15904 18.5789 9.28947C18.5789 12.9743 16.4137 16.2475 13.1567 17.7382L13.052 17.784L13.0526 19.2368C13.0526 21.2502 11.4715 22.8943 9.48313 22.9951L9.28947 23C7.21114 23 5.52632 21.3152 5.52632 19.237L5.526 17.784L5.42223 17.7382C2.24875 16.2857 0.111756 13.141 0.0042526 9.57209L0 9.28947ZM16.5789 9.28947C16.5789 5.26361 13.3153 2 9.28947 2C5.26361 2 2 5.26361 2 9.28947C2 12.4036 3.97083 15.1433 6.8593 16.1643L7.52591 16.4L7.52632 19.2368C7.52632 20.2106 8.31571 21 9.28947 21C10.2632 21 11.0526 20.2106 11.0526 19.2367L11.053 16.4L11.7197 16.1643C14.6081 15.1433 16.5789 12.4036 16.5789 9.28947ZM8 7L9 13H7L6 7H8ZM12 13L13 7H11L10 13H12Z" fill="white" />
</svg>
