<svg width="14" height="17" viewBox="0 0 14 17" fill="none" xmlns="http://www.w3.org/2000/svg">
	<path fill-rule="evenodd" clip-rule="evenodd" d="M4 2L6 0H8L10 2V4V4.0571C10 4.71512 10.6399 5.26994 11.4079 5.93574C12.5599 6.93455 14 8.18313 14 10.4047V17H12V11.4384C12 9.22935 10.5733 7.98292 9.42403 6.97885C8.64893 6.30168 8 5.73475 8 5.0571V4V2H6V4V5.0571C6 5.73063 5.34476 6.29479 4.56459 6.96652C3.39594 7.97272 1.94696 9.22029 2 11.4384C2.07684 14.6518 2 17 2 17H0V10.4047C0 8.18313 1.44012 6.93455 2.59214 5.93574C3.36008 5.26994 4 4.71512 4 4.0571V4V2Z" fill="#fff" />
</svg>
