<svg width="19" height="21" viewBox="0 0 19 21" fill="none" xmlns="http://www.w3.org/2000/svg">
	<path fill-rule="evenodd" clip-rule="evenodd" d="M5 4.50272C5 3.122 3.88071 2.00272 2.5 2.00272C1.11929 2.00272 0 3.122 0 4.50272C0 5.88343 1.11929 7.00272 2.5 7.00272C2.50757 7.00272 2.51512 7.00268 2.52267 7.00261L8.03424 20.7352L10.7835 20.7656L10.3366 19.7501C11.0439 20.3817 11.9771 20.7656 13 20.7656H19V0.765625H13C10.7909 0.765625 9 2.55649 9 4.76562L9 16.7121L4.36206 6.1709C4.75874 5.72843 5 5.14375 5 4.50272ZM11 16.7656L11 4.76562L11.0055 4.61636C11.0818 3.5815 11.9456 2.76562 13 2.76562H17V18.7656H13L12.8507 18.7601C11.8159 18.6838 11 17.82 11 16.7656Z" fill="white" />
</svg>
