<svg width="22" height="22" viewBox="0 0 22 22" fill="none" xmlns="http://www.w3.org/2000/svg">
	<path fill-rule="evenodd" clip-rule="evenodd" d="M11.8133 2C13.7408 3.99073 15 7.27968 15 11C15 12.04 14.9016 13.0463 14.7177 14H19.6772C19.885 13.0678 20 12.0597 20 11C20 6.20367 17.6435 2.46461 15 2.04018V2H11.8133ZM11.8133 20C12.808 18.9727 13.6247 17.5996 14.1822 16H19.0456C18.1162 18.2107 16.6114 19.7011 15 19.9598V20H11.8133ZM7 21.9759V22H7.5H15V21.9759C18.909 21.5986 22 16.8287 22 11C22 5.17129 18.909 0.401419 15 0.0240566V0H7.5H7V0.0240567C3.09098 0.40142 0 5.17129 0 11C0 16.8287 3.09098 21.5986 7 21.9759ZM7.5 20C10.3389 20 13 16.097 13 11C13 5.90301 10.3389 2 7.5 2C4.66114 2 2 5.90301 2 11C2 16.097 4.66114 20 7.5 20ZM7.5 6C5.19015 6 4 8.3803 4 11C4 13.6197 5.19015 16 7.5 16C9.80985 16 11 13.6197 11 11C11 8.3803 9.80985 6 7.5 6ZM7.5 8C8.32843 8 9 9.34315 9 11C9 12.6569 8.32843 14 7.5 14C6.67157 14 6 12.6569 6 11C6 9.34315 6.67157 8 7.5 8Z" fill="white" />
</svg>
