<svg width="23" height="19" viewBox="0 0 23 19" fill="none" xmlns="http://www.w3.org/2000/svg">
	<path fill-rule="evenodd" clip-rule="evenodd" d="M11.4956 0C15.0736 0 18.1174 2.28667 19.2455 5.47832H23V7.66965H18.6174L16.8811 5.47832H16.8647C15.8672 3.52712 13.8374 2.19133 11.4956 2.19133C9.15379 2.19133 7.12397 3.52712 6.12653 5.47832H6.1168L4.38056 7.66965H0.09375V5.47832H3.74571C4.8738 2.28667 7.91766 0 11.4956 0ZM11.4956 5.47832C15.0736 5.47832 18.1174 7.765 19.2455 10.9566H23V13.148H18.6174L16.8811 10.9566H16.8647C15.8672 9.00545 13.8374 7.66965 11.4956 7.66965C9.15379 7.66965 7.12397 9.00545 6.12653 10.9566H6.1168L4.38056 13.148H0.09375V10.9566H3.74571C4.8738 7.765 7.91766 5.47832 11.4956 5.47832ZM19.2455 16.435C18.1174 13.2433 15.0736 10.9566 11.4956 10.9566C7.91766 10.9566 4.8738 13.2433 3.74571 16.435H0.09375V18.6263H4.38056L6.1168 16.435H6.12653C7.12397 14.4838 9.15379 13.148 11.4956 13.148C13.8374 13.148 15.8672 14.4838 16.8647 16.435H16.8811L18.6174 18.6263H23V16.435H19.2455Z" fill="white" />
</svg>
