<svg width="22" height="21" viewBox="0 0 22 21" fill="none" xmlns="http://www.w3.org/2000/svg">
	<path d="M11.4473 0.0234375C15.8327 0.0234375 18.848 1.81383 20.5295 4.89376C21.7042 7.04542 22.1315 9.72337 21.9283 11.9807L21.895 12.3002L20.1645 12.0947C20.8066 6.68732 18.1199 1.76605 11.4473 1.76605C7.67747 1.76605 5.24259 2.94038 3.82614 4.96898C2.82297 6.40571 2.40667 8.15763 2.40667 9.81943C2.40667 14.6026 4.63892 18.5917 10.1051 18.5917C14.746 18.5917 16.8908 16.5513 16.8733 12.1415C17.1647 7.61206 15.4398 5.55276 11.4473 5.55276C8.4647 5.55276 6.93821 6.5583 6.30456 8.27287C6.04691 8.97003 5.96616 9.62329 5.96535 10.5067L5.97025 11.0266C5.97025 12.7786 7.55725 14.938 10.1051 14.938C11.3802 14.938 12.4532 13.7412 12.7432 12.121C13.0143 10.6071 12.4923 9.61113 11.4473 9.61113C11.3503 9.61113 11.2585 9.6122 11.1718 9.61454L10.9267 9.62559C9.96891 9.68931 9.79801 9.98474 10.3261 10.9192L10.4663 11.1559L10.6329 11.4185L10.8259 11.708L9.38422 12.6868C7.4563 9.84719 8.22441 7.86853 11.4473 7.86853C13.7909 7.86853 14.897 9.97902 14.4586 12.4281C14.0343 14.7978 12.3462 16.6806 10.1051 16.6806C6.53594 16.6806 4.3232 13.7731 4.23066 11.1943L4.225 10.8054C4.20634 9.58066 4.29299 8.68892 4.67 7.66879C5.56299 5.25248 7.75256 3.81015 11.4473 3.81015C16.4935 3.81015 18.9656 6.7615 18.6141 12.1936C18.6378 17.5309 15.6908 20.3343 10.1051 20.3343C6.34614 20.3343 3.72926 18.7157 2.18363 15.9536C1.12048 14.0537 0.664062 11.7851 0.664062 9.81943C0.664062 7.83152 1.16036 5.74297 2.39736 3.97136C4.15207 1.45829 7.12712 0.0234375 11.4473 0.0234375Z" fill="white" />
</svg>
