<svg xmlns="http://www.w3.org/2000/svg" width="22px" height="22px" viewBox="0 0 22 22">
	<path d="M14,6 L14,8.0570971 C14,9.70226548 18,10.7022655 18,14.4046631 L18,21 L16,21 L16,15.438385 C16,11.7395239 12,10.7395239 12,9.05710134 L12,6 L14,6 Z M10,6 L10,9.05710134 C10,10.7395239 5.91155182,11.7395239 6,15.438385 C6.04657032,17.3859339 6.05080399,19.0951091 6.012701,20.5659107 L6,21 L4,21 L4,14.4046631 C4,10.8111595 7.76816609,9.76342672 7.98982292,8.20066987 L8,8.0570971 L8,6 L10,6 Z M12,4 L12,6 L10,6 L10,4 L12,4 Z M10,0 L10,4 L8,4 L8,2 L10,0 Z M12,0 L14,2 L14,4 L12,4 L12,0 Z" fill="white" />
</svg>
