<svg width="21" height="21" viewBox="0 0 21 21" fill="none" xmlns="http://www.w3.org/2000/svg">
	<path fill-rule="evenodd" clip-rule="evenodd" d="M17 0C19.2091 0 21 1.79086 21 4V17C21 19.2091 19.2091 21 17 21H4C1.79086 21 0 19.2091 0 17V4C0 1.79086 1.79086 0 4 0H17ZM17 2H4C2.94564 2 2.08183 2.81588 2.00549 3.85074L2 4V17C2 18.0544 2.81588 18.9182 3.85074 18.9945L4 19H17C18.0544 19 18.9182 18.1841 18.9945 17.1493L19 17V4C19 2.94564 18.1841 2.08183 17.1493 2.00549L17 2ZM7.5 9C6.67157 9 6 9.67157 6 10.5C6 11.3284 6.67157 12 7.5 12C8.32843 12 9 11.3284 9 10.5C9 9.67157 8.32843 9 7.5 9ZM12 10.5C12 9.67157 12.6716 9 13.5 9C14.3284 9 15 9.67157 15 10.5C15 11.3284 14.3284 12 13.5 12C12.6716 12 12 11.3284 12 10.5ZM10.5 3C14.6421 3 18 6.35786 18 10.5C18 14.6421 14.6421 18 10.5 18C6.35786 18 3 14.6421 3 10.5C3 6.35786 6.35786 3 10.5 3ZM10.5 5C7.46243 5 5 7.46243 5 10.5C5 13.5376 7.46243 16 10.5 16C13.5376 16 16 13.5376 16 10.5C16 7.46243 13.5376 5 10.5 5Z" fill="white" />
</svg>
