<svg xmlns="http://www.w3.org/2000/svg" width="22px" height="22px" viewBox="0 0 22 22">
	<path d="M4.5,1 C5.88071187,1 7,2.11928813 7,3.5 C7,4.14113056 6.75866032,4.72589321 6.36187221,5.16839672 L8.487,9.999 L17,10 C19.209139,10 21,11.790861 21,14 L21,20 L1,20 L1,14 C1,11.790861 2.790861,10 5,10 L6.127,9.999 L4.522,5.99990862 L4.5,6 C3.1745166,6 2.08996133,4.96846406 2.00531768,3.66437569 L2,3.5 C2,2.11928813 3.11928813,1 4.5,1 Z M6.93,11.999 L5,12 C3.9456382,12 3.08183488,12.8158778 3.00548574,13.8507377 L3,14 L3,18 L9.338,17.999 L6.93,11.999 Z M17,12 L9.367,11.999 L12.007,17.999 L19,18 L19,14 C19,12.9456382 18.1841222,12.0818349 17.1492623,12.0054857 L17,12 Z" fill="white" />
</svg>
