<svg width="20" height="20" viewBox="0 0 20 20" fill="none" xmlns="http://www.w3.org/2000/svg">
	<path fill-rule="evenodd" clip-rule="evenodd" d="M20 10C20 4.47715 15.5228 0 10 0C4.47715 0 0 4.47715 0 10C0 15.5228 4.47715 20 10 20C15.5228 20 20 15.5228 20 10ZM2 10C2 5.58172 5.58172 2 10 2C14.4183 2 18 5.58172 18 10H2ZM2.25203 12C2.08751 11.3608 2 10.6906 2 10V12H2.25203ZM6 12H2.25203C3.14012 15.4505 6.27232 18 10 18C13.7277 18 16.8599 15.4505 17.748 12H19V10H18C18 10.6906 17.9125 11.3608 17.748 12H14V14H6V12ZM8 6H6V8H8V6ZM11 6V8H9V6H11ZM14 6H12V8H14V6Z" fill="white" />
</svg>
