<svg width="18" height="23" viewBox="0 0 18 23" fill="none" xmlns="http://www.w3.org/2000/svg">
	<path fill-rule="evenodd" clip-rule="evenodd" d="M15 0H0V0.434783V2V2.65217V5.08203H0.0177046L0.00491675 5.09896L3 7.36898V16.2292L2.96617 16.2566L0.12735 18.5554L0 18.6437V18.65V19V19.1094V19.5V19.7924V23H2H13H15V19.2562L18 17V6.39844H17.9868L17.9938 6.3885L15 4.29225V2V0ZM13 5.39844V5.4H13.0023L16 7.47326V8.77544V15.9393L13.0103 18.25H13V18.258L12.9955 18.2614L13 18.2672V19V19.8464V21H2V19.6015L4.99031 17.18L5 17.1797V6.375L4.9879 6.38025L5.01053 6.35178L2 4.08319V2H13V2.65217V5V5.39844Z" fill="white" />
</svg>
