<svg width="14" height="20" viewBox="0 0 14 20" fill="none" xmlns="http://www.w3.org/2000/svg">
	<path fill-rule="evenodd" clip-rule="evenodd" d="M7 2H3C2.44772 2 2 2.44772 2 3V4C2 4.55228 2.44772 5 3 5H7C7.55228 5 8 4.55228 8 4V3C8 2.44772 7.55228 2 7 2ZM7 7C7.35064 7 7.68722 6.93985 8 6.82929V10H5L4.88338 9.99327C4.38604 9.93551 4 9.51284 4 9H2V8V6.82929C2.31278 6.93985 2.64936 7 3 7H7ZM2 13H4C4 13.5128 4.38604 13.9355 4.88338 13.9933L5 14H8V12H5C3.34315 12 2 10.6569 2 9V10V12V13ZM2 14V13C2 14.6569 3.34315 16 5 16H8V17L7.99327 17.1166C7.93551 17.614 7.51284 18 7 18H3L2.88338 17.9933C2.38604 17.9355 2 17.5128 2 17V14ZM0 14V12V10V8V4V3C0 1.34315 1.34315 0 3 0H7C8.65685 0 10 1.34315 10 3V4V9H12C12 10.3062 11.1652 11.4175 10 11.8293V13H12C12 14.3062 11.1652 15.4175 10 15.8293V17C10 18.6569 8.65685 20 7 20H3C1.34315 20 0 18.6569 0 17V14ZM12 13V12H14V14H12V13ZM12 9V8H14V10H12V9Z" fill="white" />
</svg>
