<svg width="20" height="20" viewBox="0 0 20 20" fill="none" xmlns="http://www.w3.org/2000/svg">
	<path fill-rule="evenodd" clip-rule="evenodd" d="M10 0C15.5228 0 20 4.47715 20 10C20 15.5228 15.5228 20 10 20C4.47715 20 0 15.5228 0 10C0 4.47715 4.47715 0 10 0ZM10 2C5.58172 2 2 5.58172 2 10C2 14.4183 5.58172 18 10 18C14.4183 18 18 14.4183 18 10C18 5.58172 14.4183 2 10 2ZM7.73998 5.42919L9.67183 4.91155L10.7071 8.77526L14.5708 7.73998L15.0884 9.67183L11.2247 10.7071L12.26 14.5708L10.3282 15.0884L9.29289 11.2247L5.42919 12.26L4.91155 10.3282L8.77526 9.29289L7.73998 5.42919Z" fill="white" />
</svg>
