<svg width="15" height="21" viewBox="0 0 15 21" fill="none" xmlns="http://www.w3.org/2000/svg">
	<path fill-rule="evenodd" clip-rule="evenodd" d="M2 0H0V21H2L2 17.9836C5.90902 17.7263 9 14.4741 9 10.5C9 9.79945 8.90395 9.12133 8.7243 8.4781L11.7643 6.57267C12.1044 6.84033 12.5336 7 13 7C14.1046 7 15 6.10457 15 5C15 3.89543 14.1046 3 13 3C12.0375 3 11.2338 3.67992 11.043 4.58566L7.7107 6.29424C6.44954 4.43551 4.37587 3.17278 2 3.0164L2 0ZM2 5.02242V15.9776C4.80325 15.725 7 13.369 7 10.5C7 7.63098 4.80325 5.27504 2 5.02242Z" fill="white" />
</svg>
