<svg width="22" height="20" viewBox="0 0 22 20" fill="none" xmlns="http://www.w3.org/2000/svg">
	<path fill-rule="evenodd" clip-rule="evenodd" d="M13.5783 2.3332C13.3228 1.90394 12.9641 1.54528 12.5348 1.28977C11.1111 0.442318 9.26996 0.909476 8.42251 2.3332L0.699465 15.3079C0.423183 15.7721 0.277344 16.3022 0.277344 16.8424C0.277344 18.4992 1.62049 19.8424 3.27734 19.8424H18.7234C19.2636 19.8424 19.7937 19.6965 20.2579 19.4202C21.6816 18.5728 22.1488 16.7316 21.3013 15.3079L13.5783 2.3332ZM10.2065 3.2594C10.5105 2.86158 11.0712 2.74605 11.5119 3.00836L11.6146 3.07851C11.7126 3.15478 11.7958 3.24885 11.8597 3.35617L19.5827 16.3309L19.6366 16.4345C19.8413 16.8914 19.6756 17.4393 19.2349 17.7017C19.0802 17.7938 18.9035 17.8424 18.7234 17.8424H3.27734L3.16072 17.8356C2.66338 17.7779 2.27734 17.3552 2.27734 16.8424C2.27734 16.6623 2.32596 16.4856 2.41805 16.3309L10.1411 3.35617L10.2065 3.2594ZM10.0004 6.00236H12.0004V12.0024H10.0004V6.00236ZM12.0004 14.0024H10.0004V16.0024H12.0004V14.0024Z" fill="white" />
</svg>
