<svg width="280" height="59" viewBox="0 0 280 59" fill="none" xmlns="http://www.w3.org/2000/svg">
	<path d="M93.3613 18.8411H118.542L117.297 24.6763H101.314L100.724 27.5349H113.668L112.423 33.3701H99.4795L98.8244 36.5172H115.594L114.284 42.6541H88.3174L93.3613 18.8411Z" fill="#004ea6" />
	<path d="M123.688 18.8411H132.907L131.173 27.0805L141.391 18.8411H153.867L142.113 27.4347L149.796 42.6541H138.344L133.984 32.9714L129.23 36.2514L127.89 42.6541H118.671L123.688 18.8411Z" fill="#004ea6" />
	<path d="M163.109 24.8763H154.522L155.807 18.8411H182.261L180.976 24.8763H172.35L168.575 42.6541H159.333L163.109 24.8763Z" fill="#004ea6" />
	<path d="M184.965 18.8411H202.757C208.722 18.8411 211.829 21.0703 211.829 24.8468C211.829 30.8131 206.913 34.288 199.479 34.288H190.891L189.121 42.6541H179.904L184.965 18.8411ZM193.094 23.9551L192.019 29.0953H197.067C199.82 29.0953 201.682 28.3348 201.682 25.7122C201.708 24.3354 200.502 23.942 198.142 23.942H193.094V23.9551Z" fill="#004ea6" />
	<path d="M214.541 36.8975C215.393 37.1847 216.14 37.3545 216.834 37.3545C218.21 37.3545 219.297 36.7278 220.083 35.4222L212.354 18.8411H222.441L225.559 29.2597L231.992 18.8541H242.578L229.084 36.0227C226.49 39.3129 225.573 40.1354 224.629 40.9579C222.821 42.5899 220.332 43.1774 218.105 43.1774C216.376 43.1774 214.961 42.9163 213.323 42.5507L214.541 36.8975Z" fill="#004ea6" />
	<path d="M88.709 18.8413H74.7732L54.4287 42.6149H54.468L54.4287 42.6543H65.4277L77.9064 26.3591L74.4626 42.6543H83.6677L88.709 18.8413Z" fill="#004ea6" />
	<path d="M243.698 18.8411H257.353L258.297 33.3388L265.741 18.8411H279.213L274.167 42.6541H265.61L269.541 24.0497L259.974 42.6541H252.767L251.128 24.0497L247.197 42.6541H238.652L243.698 18.8411Z" fill="#004ea6" />
	<path d="M50.7539 14.7187C56.1845 24.1201 49.1404 38.3269 35.0261 46.4581C33.0979 47.5711 31.1434 48.5139 29.1758 49.2733L30.3826 50.8969C34.7769 50.1244 39.3811 48.4746 43.8017 45.9213C57.916 37.79 64.96 23.5702 59.5294 14.1819C55.7254 7.5957 46.7924 5.12096 36.9282 7.04575C43.054 7.5957 48.1173 10.1752 50.7539 14.7187Z" fill="#004ea6" />
	<path d="M34.2915 6.347L43.9912 0.56952L40.86 15.5446L34.2915 6.347Z" fill="#004ea6" />
	<path d="M10.6084 43.3744C5.17783 33.973 12.2219 19.7663 26.3362 11.635C28.2644 10.522 30.2189 9.57926 32.1865 8.81982L30.9797 7.19619C26.5854 7.96872 21.9812 9.61854 17.5606 12.1718C3.44634 20.3031 -3.59769 34.523 1.8329 43.9113C5.63694 50.4974 14.5699 52.9722 24.4341 51.0474C18.3083 50.4974 13.245 47.918 10.6084 43.3744Z" fill="#004ea6" />
	<path d="M27.0708 51.7461L17.3711 57.5236L20.5023 42.5486L27.0708 51.7461Z" fill="#004ea6" />
	<path d="M57.0452 33.3643L58.3536 27.4764L39.9051 27.4764L38.5967 33.3643L57.0452 33.3643Z" fill="#004ea6" />
</svg>
