<svg width="19" height="16" viewBox="0 0 19 16" fill="none" xmlns="http://www.w3.org/2000/svg">
<path fill-rule="evenodd" clip-rule="evenodd" d="M15.0019 0.22306C13.6431 -0.19883 12.1357 -0.00955426 10.9024 0.683362C10.5132 0.902021 10.1512 1.17083 9.82991 1.48642C9.78378 1.53173 9.73848 1.578 9.69405 1.62523L7.68095 3.97385L12.3536 8.64645L12.7071 9L12.3536 9.35355L7.26986 14.4373C7.67717 14.763 8.10461 15.1021 8.55291 15.4576L8.56246 15.4652L9.03271 15.8386C9.16455 15.9432 9.32704 16 9.49432 16C9.66161 16 9.8241 15.9432 9.95594 15.8386L10.4262 15.4652L10.4363 15.4572C13.9794 12.6472 16.2203 10.8684 17.5091 8.52229L17.5179 8.50643L17.52 8.50259L17.5525 8.4435L17.5549 8.43902C18.4812 6.73597 18.7016 5.08502 18.3252 3.66686L18.3221 3.65494C18.1658 3.07395 17.9125 2.54583 17.5805 2.08163C17.0906 1.39661 16.4288 0.850652 15.6547 0.479538L15.6379 0.471496C15.4312 0.373129 15.2192 0.290615 15.0034 0.223526L15.0019 0.22306ZM6.48661 13.8063L11.2929 9L6.64645 4.35355L6.31905 4.02615L6.62037 3.6746L8.78369 1.15073C8.56516 0.975539 8.33273 0.81917 8.0896 0.682447C6.66316 -0.119743 4.86868 -0.245682 3.3523 0.470734L3.3493 0.472258L3.33793 0.477711L3.3301 0.48149C2.0399 1.10505 1.06517 2.21967 0.679342 3.65494L0.676232 3.66658L0.675883 3.66789C0.299554 5.08541 0.515617 6.73666 1.4355 8.44138L1.43631 8.44287L1.46878 8.50251L1.46968 8.50415L1.47883 8.52077C2.49662 10.3742 4.10829 11.8733 6.48661 13.8063Z" fill="#828282"/>
</svg>
