<svg width="53" height="49" viewBox="0 0 53 49" fill="none" xmlns="http://www.w3.org/2000/svg">
<path d="M43.5377 12.2243C48.1058 20.0319 42.1799 31.831 30.3062 38.5847C28.7294 39.4881 27.084 40.2695 25.3848 40.9217L26.4002 42.2705C30.0967 41.6285 33.9699 40.259 37.6892 38.1379C49.5629 31.3858 55.4888 19.576 50.9198 11.7775C47.7196 6.30862 40.2054 4.25311 31.9071 5.85184C37.0599 6.30862 41.3193 8.45133 43.5377 12.2243Z" fill="#00459C"/>
<path d="M29.6883 5.27124L37.8486 0.473389L35.2138 12.9103L29.6883 5.27124ZM9.76451 36.0225C5.19641 28.2149 11.1223 16.4158 22.996 9.66213C24.5728 8.75845 26.2182 7.97681 27.9174 7.32425L26.9037 5.97634C23.2063 6.61749 19.3331 7.98783 15.6139 10.1089C3.74017 16.861 -2.18573 28.6708 2.38321 36.4676C5.5834 41.9374 13.0985 43.992 21.3967 42.3941C16.2431 41.9374 11.9838 39.7946 9.76619 36.0216L9.76451 36.0225Z" fill="#00459C"/>
<path d="M23.6144 42.9754L15.4541 47.7733L18.0881 35.3364L23.6144 42.9754ZM48.8306 27.709L49.9319 22.8198H34.4113L33.3109 27.709H48.8306Z" fill="#00459C"/>
</svg>
