<svg width="29" height="30" viewBox="0 0 29 30" fill="none" xmlns="http://www.w3.org/2000/svg">
<path d="M6.5 1.66675L2.5 7.00008V25.6667C2.5 26.374 2.78095 27.0523 3.28105 27.5524C3.78115 28.0525 4.45942 28.3334 5.16667 28.3334H23.8333C24.5406 28.3334 25.2189 28.0525 25.719 27.5524C26.219 27.0523 26.5 26.374 26.5 25.6667V7.00008L22.5 1.66675H6.5Z" stroke="white" stroke-width="2" stroke-linecap="round" stroke-linejoin="round"/>
<path d="M2.5 7H26.5" stroke="white" stroke-width="2" stroke-linecap="round" stroke-linejoin="round"/>
<path d="M19.8327 12.3333C19.8327 13.7477 19.2708 15.1043 18.2706 16.1045C17.2704 17.1047 15.9138 17.6666 14.4993 17.6666C13.0849 17.6666 11.7283 17.1047 10.7281 16.1045C9.72792 15.1043 9.16602 13.7477 9.16602 12.3333" stroke="white" stroke-width="2" stroke-linecap="round" stroke-linejoin="round"/>
</svg>
