<svg width="29" height="33" viewBox="0 0 29 33" fill="none" xmlns="http://www.w3.org/2000/svg">
<path d="M20.75 4.81543H23.875C24.7038 4.81543 25.4987 5.1315 26.0847 5.69411C26.6708 6.25672 27 7.01978 27 7.81543V28.8154C27 29.6111 26.6708 30.3741 26.0847 30.9367C25.4987 31.4994 24.7038 31.8154 23.875 31.8154H5.125C4.2962 31.8154 3.50134 31.4994 2.91529 30.9367C2.32924 30.3741 2 29.6111 2 28.8154V7.81543C2 7.01978 2.32924 6.25672 2.91529 5.69411C3.50134 5.1315 4.2962 4.81543 5.125 4.81543H8.25" stroke="white" stroke-width="2" stroke-linecap="round" stroke-linejoin="round"/>
<path d="M19.1662 1.66772H9.8329C8.97379 1.66772 8.27734 2.36417 8.27734 3.22328V6.33439C8.27734 7.1935 8.97379 7.88995 9.8329 7.88995H19.1662C20.0253 7.88995 20.7218 7.1935 20.7218 6.33439V3.22328C20.7218 2.36417 20.0253 1.66772 19.1662 1.66772Z" stroke="white" stroke-width="2" stroke-linecap="round" stroke-linejoin="round"/>
</svg>
