<svg width="53" height="49" viewBox="0 0 53 49" fill="none" xmlns="http://www.w3.org/2000/svg">
<path d="M43.5397 12.2241C48.1077 20.0321 42.1817 31.8311 30.3077 38.5841C28.7298 39.4884 27.0846 40.2701 25.3867 40.9221L26.4017 42.2701C30.0987 41.6281 33.9717 40.2581 37.6917 38.1371C49.5647 31.3851 55.4907 19.5751 50.9217 11.7771C47.7217 6.30706 40.2067 4.25206 31.9087 5.85106C37.0617 6.30806 41.3207 8.45106 43.5387 12.2231L43.5397 12.2241Z" fill="white"/>
<path d="M29.6907 5.27066L37.8507 0.472656L35.2167 12.9097L29.6907 5.27066ZM9.7677 36.0227C5.1987 28.2147 11.1247 16.4157 22.9987 9.66266C24.5766 8.75799 26.2218 7.97601 27.9197 7.32366L26.9067 5.97566C23.2087 6.61666 19.3367 7.98766 15.6167 10.1087C3.7427 16.8597 -2.18331 28.6697 2.38669 36.4677C5.58669 41.9377 13.1007 43.9917 21.3997 42.3937C16.2457 41.9367 11.9867 39.7937 9.7697 36.0217L9.7677 36.0227Z" fill="white"/>
<path d="M23.6131 42.9753L15.4531 47.7733L18.0871 35.3363L23.6131 42.9763V42.9753ZM48.8301 27.7103L49.9301 22.8203H34.4101L33.3101 27.7103H48.8301Z" fill="white"/>
</svg>
