<svg aria-hidden="true" xmlns="http://www.w3.org/2000/svg" xmlns:xlink="http://www.w3.org/1999/xlink"><symbol viewBox="0 0 16 27" id="arrow-back-sidebar-catalog" xmlns="http://www.w3.org/2000/svg">
<path fill-rule="evenodd" clip-rule="evenodd" d="M15.5462 3.07445L5.12155 13.4982L15.5462 23.9237L13.4248 26.045L3.00023 15.6195L0.878906 13.4982L3.00023 11.3768L13.4248 0.953125L15.5462 3.07445Z"/>
</symbol><symbol viewBox="0 0 53 43" id="basket_empty" xmlns="http://www.w3.org/2000/svg">
<path fill-rule="evenodd" clip-rule="evenodd" d="M10.6571 0C14.8992 0 18.3387 3.4278 18.3387 7.65455C18.3387 11.8823 14.8992 15.3091 10.6571 15.3091C6.41591 15.3091 2.97642 11.8823 2.97642 7.65455C2.97742 3.4278 6.41591 0 10.6571 0ZM42.3429 0C46.5851 0 50.0215 3.4278 50.0215 7.65455C50.0215 11.8823 46.5841 15.3091 42.3429 15.3091C38.0997 15.3091 34.6622 11.8823 34.6622 7.65455C34.6622 3.4278 38.1007 0 42.3429 0ZM26.5 23.3876C15.7932 23.3876 5.96841 29.2213 0.861357 38.6087C0.0757331 40.0537 0.613529 41.8586 2.06337 42.6405C3.51422 43.4225 5.32426 42.8865 6.10788 41.4426C10.1725 33.975 17.9855 29.3343 26.5 29.3343C35.0144 29.3343 42.8275 33.975 46.8931 41.4436C47.6767 42.8875 49.4908 43.4225 50.9376 42.6395C52.3864 41.8566 52.9242 40.0507 52.1386 38.6087C47.0306 29.2203 37.2067 23.3876 26.5 23.3876Z"/>
</symbol><symbol viewBox="0 0 15 19" id="del-compare" xmlns="http://www.w3.org/2000/svg">
<path fill-rule="evenodd" clip-rule="evenodd" d="M15 3V2C15 2.12293 14.9367 2.11085 14.7488 2.07496C14.5945 2.0455 14.3562 2 14 2H10V1C10.3125 0.447715 9.89277 0 9 0H6C5.10723 0 4.6875 0.447715 5 1V2H1C0.643773 2 0.405491 2.0455 0.251211 2.07496C0.0632898 2.11085 0 2.12293 0 2V3C0 3.77614 0.209867 4 1 4H14C14.7901 4 15 3.77614 15 3ZM3 19C2.68802 19.0024 1.87624 18.2474 2 17L1 6H14L13 17C13.1423 18.2474 12.3305 19.0024 12 19H3Z"/>
</symbol><symbol viewBox="0 0 20 20" id="filters-btn" xmlns="http://www.w3.org/2000/svg">
<path fill-rule="evenodd" clip-rule="evenodd" d="M2 0H4V3.17071C5.16519 3.58254 6 4.69378 6 6C6 7.30622 5.16519 8.41746 4 8.82929V20H2V8.82929C0.834808 8.41746 0 7.30622 0 6C0 4.69378 0.834808 3.58254 2 3.17071V0ZM7 14C7 15.3062 7.83481 16.4175 9 16.8293V20H11V16.8293C12.1652 16.4175 13 15.3062 13 14C13 12.6938 12.1652 11.5825 11 11.1707V0H9V11.1707C7.83481 11.5825 7 12.6938 7 14ZM18 0H16V5.17071C14.8348 5.58254 14 6.69378 14 8C14 9.30622 14.8348 10.4175 16 10.8293V20H18V10.8293C19.1652 10.4175 20 9.30622 20 8C20 6.69378 19.1652 5.58254 18 5.17071V0ZM18 8C18 8.55228 17.5523 9 17 9C16.4477 9 16 8.55228 16 8C16 7.44772 16.4477 7 17 7C17.5523 7 18 7.44772 18 8ZM10 15C10.5523 15 11 14.5523 11 14C11 13.4477 10.5523 13 10 13C9.44772 13 9 13.4477 9 14C9 14.5523 9.44772 15 10 15ZM4 6C4 6.55228 3.55228 7 3 7C2.44772 7 2 6.55228 2 6C2 5.44772 2.44772 5 3 5C3.55228 5 4 5.44772 4 6Z"/>
</symbol><symbol viewBox="0 0 30 24" id="icon_basket" xmlns="http://www.w3.org/2000/svg">
<path id="ae&#xD0;&#xBA;&#xD0;&#xBE;&#xD1;&#x80;&#xD0;&#xB7;&#xD0;&#xB8;&#xD0;&#xBD;&#xD0;&#xB0; copy" fill-rule="evenodd" clip-rule="evenodd" d="M0 2.52632H6.02929L10.3958 16H26.464L30 4.52522H9.30518L7.83865 0H0V2.52632ZM24.6267 13.4737H12.2052L10.1239 7.05154H26.6057L24.6267 13.4737ZM17.4812 21.0526C17.4812 22.6804 16.1767 24 14.5676 24C12.9585 24 11.6541 22.6804 11.6541 21.0526C11.6541 19.4248 12.9585 18.1053 14.5676 18.1053C16.1767 18.1053 17.4812 19.4248 17.4812 21.0526ZM23.7244 24C25.3335 24 26.638 22.6804 26.638 21.0526C26.638 19.4248 25.3335 18.1053 23.7244 18.1053C22.1153 18.1053 20.8109 19.4248 20.8109 21.0526C20.8109 22.6804 22.1153 24 23.7244 24Z"/>
</symbol><symbol viewBox="0 0 24 24" id="icon_cabinet" xmlns="http://www.w3.org/2000/svg">
<path fill-rule="evenodd" clip-rule="evenodd" d="M24 21.0964C24 19.1673 22.6869 17.4859 20.8158 17.0185L16.2181 15.8695L16.2243 15.2833C16.2296 14.7569 16.4483 14.2325 16.8468 13.7958C18.1591 12.3574 18.7991 10.9712 19.0069 9.35909C19.085 8.75304 19.0997 8.29281 19.0997 7.25245C19.0997 3.27444 15.9693 0.0724969 12.0236 0C8.03086 0.0724936 4.90032 3.27426 4.90032 7.25147C4.90032 8.29184 4.91499 8.75207 4.99311 9.35811C5.20091 10.9702 5.84088 12.3564 7.15313 13.7947C7.55171 14.2315 7.77044 14.7559 7.77571 15.2817L7.78189 15.8685L3.18407 17.0175C1.31261 17.4864 0 19.1677 0 21.0964V22.7143C0 23.4244 0.575634 24 1.28571 24H22.7143C23.4244 24 24 23.4244 24 22.7143V21.0964ZM20.2696 19.5839C21.0027 19.7671 21.5172 20.426 21.5172 21.182V21.5172H2.48276V21.182C2.48276 20.4259 2.99753 19.7666 3.73123 19.5828L8.61295 18.3628C9.63691 18.1074 10.3517 17.1815 10.3403 16.1262L10.3315 15.286C10.3195 14.0978 9.84557 12.9616 9.02493 12.0623C8.06062 11.0054 7.64328 10.1014 7.50153 9.00171C7.44163 8.53702 7.42917 8.14605 7.42917 7.20713C7.42917 4.60514 9.45829 2.5299 12.0238 2.48276C14.5418 2.5299 16.5708 4.60526 16.5708 7.20812C16.5708 8.14704 16.5584 8.538 16.4985 9.00269C16.3567 10.1024 15.9394 11.0064 14.975 12.0633C14.1544 12.9626 13.6805 14.0988 13.6685 15.2876L13.6597 16.1276C13.6483 17.1833 14.3629 18.1084 15.3876 18.364L20.2696 19.5839Z"/>
</symbol><symbol viewBox="0 0 20 20" id="icon_change" xmlns="http://www.w3.org/2000/svg">
<path fill-rule="evenodd" clip-rule="evenodd" d="M18.1463 0.225379L19.776 2.05392C20.0747 2.35443 20.0747 2.84617 19.776 3.14667L18.1741 4.75847L15.4583 1.83718L17.0602 0.225379C17.3589 -0.0751264 17.8476 -0.0751264 18.1463 0.225379ZM1.92028 18.1133H16.0797V9.39444L18 7.36224V18.3858C18 19.2872 17.2614 20 16.354 20H1.64596C0.73857 20 0 19.2872 0 18.3858V4.34044C0 3.45999 0.73857 2.72627 1.64596 2.72627H12.1125L10.1923 4.63393H1.92028V18.1133ZM14.5841 2.72627L9.14005 8.45087L11.9379 11.3856L17.382 5.66096L14.5841 2.72627ZM6.97303 10.6667C6.86444 10.767 6.81015 10.8673 6.75585 11.0178L6.02288 14.0526C5.88715 14.5543 6.3758 15.0057 6.94588 14.9054L9.72409 13.7251C9.85982 13.7 9.99556 13.6248 10.1041 13.5245L11 12.6968L7.86889 9.83898L6.97303 10.6667Z"/>
</symbol><symbol viewBox="0 0 27 27" id="icon_close-modal" xmlns="http://www.w3.org/2000/svg">
	<path fill-rule="evenodd" clip-rule="evenodd" d="M15.9099 13.0815L26.163 23.3345L23.3345 26.163L13.0815 15.9099L2.82843 26.163L0 23.3345L10.253 13.0815L0 2.82843L2.82843 0L13.0815 10.253L23.3345 0L26.163 2.82843L15.9099 13.0815Z"/>
</symbol><symbol viewBox="0 0 12 19" id="icon_enter" xmlns="http://www.w3.org/2000/svg">
<path d="M5 16C6.06922 16.5062 6.25623 17.8468 6 18C5.56139 18.0418 5.18811 17.9474 5 18L0 13L5 8L5.3263 7.99585C5.59279 7.99447 5.91058 7.99585 6 8C6.66518 8.78971 6.13613 9.43494 5 10L3 12H10V1C9.99608 0.579773 10.4447 0.133077 11 0C11.5514 0.133077 12 0.579773 12 1V13C12 14.0423 10.9664 14.0423 11 14H3L5 16Z"/>
</symbol><symbol viewBox="0 0 26 24" id="icon_favorites" xmlns="http://www.w3.org/2000/svg">
<path fill-rule="evenodd" clip-rule="evenodd" d="M4.99257 24L13 19.9053L21.0074 24L19.477 15.321L26 9.13647L16.9896 7.86297L13 0L9.01036 7.86297L0 9.13647L6.52295 15.321L4.99257 24ZM17.8138 19.6738L13 17.2122L8.18618 19.6738L9.10443 14.4663L5.25477 10.8164L10.579 10.0638L13 5.29244L15.421 10.0638L20.7452 10.8164L16.8956 14.4663L17.8138 19.6738Z"/>
</symbol><symbol viewBox="0 0 23 15" id="icon_pagging-left" xmlns="http://www.w3.org/2000/svg">
<path fill-rule="evenodd" clip-rule="evenodd" d="M22.4375 6.79564L2.82588 6.79564L9.13504 0.5L7.03435 0.5L0.0375004 7.49498L7.03435 14.5H9.13504L2.82588 8.2L22.4375 8.2V6.79564Z"/>
</symbol><symbol viewBox="0 0 23 15" id="icon_pagging-right" xmlns="http://www.w3.org/2000/svg">
<path fill-rule="evenodd" clip-rule="evenodd" d="M0.291504 6.79564L19.9031 6.79564L13.594 0.5L15.6947 0.5L22.6915 7.49498L15.6947 14.5H13.594L19.9031 8.2L0.291504 8.2L0.291504 6.79564Z"/>
</symbol><symbol viewBox="0 0 22 31" id="icon_phone" xmlns="http://www.w3.org/2000/svg">
<path fill-rule="evenodd" clip-rule="evenodd" d="M19.4724 19.5082C18.3371 17.4343 15.7372 16.7286 13.7093 17.9569L12.9395 18.4199C12.9395 18.4199 11.9289 16.7388 11.1308 14.8769C10.3327 13.015 9.73822 10.9522 9.73822 10.9522L10.6102 10.4214C12.5908 9.22186 13.2712 6.63158 12.1621 4.58432L10.8183 2.16007C9.68608 0.091985 7.09432 -0.618325 5.06535 0.588609L2.12301 2.37647C-1.19407 4.39754 -0.619537 11.0991 3.81459 19.1674C8.297 27.2964 12.9128 31.6223 16.3313 29.5518C16.3586 29.5333 16.384 29.5161 16.408 29.4997C16.4877 29.4455 16.5534 29.4008 16.6313 29.3502C16.7121 29.3107 16.7395 29.2975 16.7768 29.2803L16.926 29.201L19.262 27.785C21.2466 26.5615 21.9239 23.9768 20.8093 21.9197L19.4724 19.5082ZM15.2606 20.5251C15.8276 20.1817 16.5233 20.3705 16.8434 20.9553L18.18 23.3663C18.5284 24.0161 18.3092 24.8477 17.6962 25.2256L15.4377 26.5945C15.4028 26.6112 15.3645 26.6298 15.3133 26.6548C15.2325 26.6943 15.2052 26.7074 15.1678 26.7247L14.9751 26.8136L14.8147 26.9524C14.8005 26.9646 14.7778 26.9813 14.6994 27.0356C13.6641 27.6594 10.0766 24.3088 6.44405 17.7211C4.74417 14.628 4.28502 12.3169 3.79806 9.86577C3.74196 9.58338 3.68549 9.29913 3.62671 9.01162C3.14243 6.64285 3.32381 5.15831 3.68355 4.93913L6.61226 3.15947C7.16711 2.82949 7.86874 3.02178 8.18927 3.60726L9.52993 6.02571C9.87467 6.66219 9.65698 7.49095 9.05212 7.85729L7.09133 9.05072L6.02106 9.70214L6.47138 10.871C6.47138 10.871 7.32452 13.7912 8.50218 16.3248C9.67984 18.8583 11.3252 21.3131 11.3252 21.3131L12.1372 22.4038L15.2606 20.5251Z"/>
</symbol><symbol viewBox="0 0 17 18" id="icon_reset" xmlns="http://www.w3.org/2000/svg">
<g clip-path="url(#anclip0_109_1659)">
<path fill-rule="evenodd" clip-rule="evenodd" d="M11.0006 1C14.4508 1.88831 17 5.02035 17 8.7478C17 11.7271 15.3713 14.3261 12.9558 15.7029L15 17.7478H9V11.7478L10.7034 13.4501C12.6262 12.7535 14 10.9111 14 8.7478C14 6.69799 12.7665 4.93628 11.0013 4.16442L11.0006 1ZM5.99935 16.7478C2.54923 15.8595 0 12.7274 0 9C0 6.02065 1.62865 3.4217 4.04422 2.04486L2 0H8V6L6.29661 4.29765C4.37383 4.9943 3 6.83671 3 9C3 11.0498 4.23348 12.8115 5.99868 13.5834L5.99935 16.7478Z"/>
</g>
<defs>
<clipPath id="anclip0_109_1659">
<rect width="17" height="17.7478"/>
</clipPath>
</defs>
</symbol><symbol viewBox="0 0 24 23" id="icon_search" xmlns="http://www.w3.org/2000/svg">
<path fill-rule="evenodd" clip-rule="evenodd" d="M16.1334 17.1275C14.4231 18.6086 12.1924 19.5047 9.75235 19.5047C4.36628 19.5047 0 15.1384 0 9.75235C0 4.36628 4.36628 0 9.75235 0C15.1384 0 19.5047 4.36628 19.5047 9.75235C19.5047 11.7377 18.9114 13.5846 17.8925 15.1252L23.4497 20.6825L21.569 22.5632L16.1334 17.1275ZM16.845 9.75235C16.845 13.6695 13.6695 16.845 9.75235 16.845C5.83521 16.845 2.65973 13.6695 2.65973 9.75235C2.65973 5.83521 5.83521 2.65973 9.75235 2.65973C13.6695 2.65973 16.845 5.83521 16.845 9.75235Z"/>
</symbol><symbol viewBox="0 0 26 26" id="icon_share" xmlns="http://www.w3.org/2000/svg">
<path fill-rule="evenodd" clip-rule="evenodd" d="M16.6397 17.6801C17.6799 16.3801 19.1099 15.6 20.7998 15.6H20.8001C23.6602 15.6 26.0001 17.9399 26.0001 20.8C26.0001 23.6601 23.6602 26 20.8001 26C17.94 26 15.6001 23.6601 15.6001 20.8C15.6001 20.67 15.6326 20.54 15.6651 20.41C15.6976 20.28 15.7301 20.15 15.7301 20.02L9.3601 17.42C8.31996 18.72 6.88991 19.5 5.2 19.5C2.33991 19.5 0 17.1601 0 14.3C0 11.4399 2.33991 9.1 5.2 9.1C6.63 9.1 7.93 9.75 8.83991 10.6601L15.8599 6.63005C15.8376 6.54102 15.8154 6.45581 15.7938 6.37309L15.7937 6.3729L15.7937 6.37281C15.6891 5.97254 15.5998 5.63083 15.5998 5.2C15.5998 2.33991 17.9397 0 20.7998 0C23.6599 0 25.9998 2.33991 25.9998 5.2C25.9998 8.0601 23.6599 10.4 20.7998 10.4C19.3698 10.4 18.0698 9.75 17.0297 8.83991L10.1397 12.87C10.162 12.9591 10.1843 13.0444 10.2059 13.1272L10.2059 13.1272C10.3105 13.5275 10.3998 13.8692 10.3998 14.3C10.3998 14.5601 10.3998 14.82 10.2697 15.0801L16.6397 17.6801ZM23.3998 5.2C23.3998 3.76995 22.2299 2.6 20.7998 2.6C19.3698 2.6 18.1998 3.76995 18.1998 5.2C18.1998 6.63005 19.3698 7.8 20.7998 7.8C22.2299 7.8 23.3998 6.63005 23.3998 5.2ZM5.19983 16.9C3.76978 16.9 2.59982 15.7301 2.59982 14.3C2.59982 12.87 3.76978 11.7 5.19983 11.7C6.62987 11.7 7.79983 12.87 7.79983 14.3C7.79983 15.7301 6.62987 16.9 5.19983 16.9ZM18.1998 20.8C18.1998 22.2301 19.3698 23.4 20.7998 23.4C22.2299 23.4 23.3998 22.2301 23.3998 20.8C23.3998 19.37 22.2299 18.2 20.7998 18.2C19.3698 18.2 18.1998 19.37 18.1998 20.8Z"/>
</symbol><symbol viewBox="0 0 31 31" id="icon_spoller" xmlns="http://www.w3.org/2000/svg">
<path fill-rule="evenodd" clip-rule="evenodd" d="M17 0H14V14H0V17H14V31H17V17H31V14H17V0Z"/>
</symbol><symbol viewBox="0 0 16 16" id="input_clear" xmlns="http://www.w3.org/2000/svg">
<path fill-rule="evenodd" clip-rule="evenodd" d="M8 0C3.6 0 0 3.6 0 8C0 12.4 3.6 16 8 16C12.4 16 16 12.4 16 8C16 3.6 12.4 0 8 0ZM12 11.0494L10.88 12.2353L8 9.18588L5.12 12.2353L4 11.0494L6.88 8L4 4.95059L5.12 3.76471L8 6.81412L10.88 3.76471L12 4.95059L9.12 8L12 11.0494Z"/>
</symbol><symbol viewBox="0 0 77 14" id="logo_salt" xmlns="http://www.w3.org/2000/svg">
<path fill-rule="evenodd" clip-rule="evenodd" d="M32.7048 10.9764C34.2224 11.0205 35.7244 10.6559 37.0571 9.91985C37.1285 9.8802 37.2046 9.85222 37.3061 9.80557C37.673 10.5339 37.8597 11.3415 37.8501 12.159C37.8616 13.0733 37.8501 13.0919 36.9902 13.3741C35.5422 13.8278 34.028 14.0267 32.5134 13.9619C30.8998 13.9293 29.376 13.619 27.9883 12.77C26.3377 11.7718 25.4156 10.2767 25.1298 8.39213C24.8566 6.89013 25.0167 5.34034 25.5908 3.92792C26.453 1.89406 28.0528 0.760515 30.1391 0.289369C32.6121 -0.288017 35.2057 0.00401796 37.4928 1.11737C37.6103 1.17102 37.7763 1.30396 37.7763 1.39959C37.8041 2.50724 37.5391 3.60231 37.0087 4.57166C36.2249 4.17282 35.4849 3.74832 34.7034 3.40546C33.7746 2.99609 32.7409 2.89722 31.7527 3.12324C30.1321 3.49409 29.1593 4.67895 29.104 6.45157C29.0804 7.09895 29.1455 7.74653 29.2976 8.3758C29.7057 9.9665 31.0266 10.9414 32.7071 10.9858L32.7048 10.9764ZM73.0235 8.54374C72.9516 8.3518 72.8262 8.18509 72.6625 8.06379C72.4989 7.9425 72.3039 7.87183 72.1014 7.86034C71.0733 7.82536 70.0428 7.86034 68.9939 7.86034V10.9088C70.052 10.9088 71.0848 10.9508 72.1106 10.8831C72.2748 10.8493 72.4307 10.7831 72.5696 10.6882C72.7084 10.5934 72.8274 10.4718 72.9198 10.3304C73.0905 10.07 73.1895 9.7682 73.2065 9.45619C73.2235 9.14418 73.158 8.83322 73.0166 8.5554L73.0235 8.54374ZM76.4122 11.4966C75.7206 12.9846 74.4435 13.6774 72.8644 13.7123C70.4808 13.7683 68.0972 13.7287 65.7182 13.731C65.3862 13.731 65.1903 13.5771 65.1903 13.2459C65.1903 10.7362 65.1903 8.22575 65.1903 5.71454C65.1672 5.49762 65.1557 5.29237 65.1534 5.10578C65.1547 4.77476 65.1246 4.44438 65.0635 4.11917C65.0362 3.85923 64.9121 3.61955 64.7164 3.44886C64.5207 3.27816 64.2681 3.18926 64.01 3.20021C63.3184 3.17688 62.6061 3.20021 61.873 3.20021C61.873 3.89993 61.8846 4.59965 61.873 5.29937C61.8431 6.99969 61.7393 8.69301 61.2667 10.335C60.8818 11.6738 60.2547 12.8633 58.89 13.4325C58.37 13.6436 57.8196 13.7681 57.2602 13.801C56.4419 13.8476 55.6166 13.7776 54.7798 13.7567C54.5266 12.7605 54.5393 11.7141 54.8167 10.7245C55.1822 10.7433 55.5484 10.7433 55.914 10.7245C56.336 10.7018 56.7413 10.5504 57.0766 10.2902C57.412 10.0301 57.6616 9.67325 57.7928 9.26678C58.0676 8.49036 58.2472 7.68276 58.3276 6.86208C58.4175 5.7122 58.3506 4.55067 58.3506 3.2935H55.9301C55.8333 2.48183 55.7641 2.32322 55.7641 1.84975C55.732 1.32925 55.7881 0.807033 55.9301 0.305696H56.428C59.1943 0.305696 61.9606 0.284704 64.7384 0.31969C65.4236 0.317351 66.1045 0.430059 66.7532 0.653224C68.0972 1.14303 68.6551 2.2859 68.8717 3.62004C68.9328 4.02918 68.9628 4.44244 68.9617 4.85621V4.98916C68.9706 5.00423 68.9769 5.02083 68.9801 5.03814C70.0636 5.03814 71.0963 5.02181 72.1268 5.03814C72.7177 5.03636 73.3078 5.0863 73.8903 5.18741C75.3748 5.49062 76.32 6.40259 76.6865 7.886C77.0201 9.08074 76.9253 10.3563 76.4191 11.4872L76.4122 11.4966ZM49.5907 6.15536C49.4708 4.54367 48.6686 3.16289 46.5939 3.0556C45.0401 2.9763 43.846 3.53607 43.3389 5.24106C43.2026 5.81928 43.1253 6.41015 43.1084 7.00435C43.1099 7.29195 43.1269 7.57926 43.1591 7.86501C43.3343 9.41372 43.9797 10.7339 45.8585 10.9484C47.5068 11.135 49.0328 10.5706 49.4731 8.61604C49.6326 7.80707 49.6738 6.97877 49.5953 6.15769L49.5907 6.15536ZM51.9905 11.8324C51.0446 12.8584 49.7915 13.5412 48.4242 13.7753C46.2781 14.1881 44.1757 14.0902 42.2208 12.9893C40.425 11.9747 39.4937 10.3583 39.1848 8.35948C38.9355 6.92374 39.0815 5.44627 39.6067 4.08885C40.3836 2.15063 41.822 0.923782 43.8138 0.384997C45.8746 -0.170115 47.9355 -0.118801 49.9134 0.74652C52.0112 1.66082 53.173 3.33315 53.5672 5.5606C53.6502 6.02708 53.6641 6.52154 53.7102 6.99969C53.6802 8.81196 53.233 10.468 51.9858 11.8371"/>
<rect y="5" width="20" height="0.999965"/>
<rect y="8" width="20" height="0.999965"/>
</symbol><symbol viewBox="0 0 22 21" id="sidebar-catalog__link-icon-1" xmlns="http://www.w3.org/2000/svg">
	<path d="M11.4473 0.0234375C15.8327 0.0234375 18.848 1.81383 20.5295 4.89376C21.7042 7.04542 22.1315 9.72337 21.9283 11.9807L21.895 12.3002L20.1645 12.0947C20.8066 6.68732 18.1199 1.76605 11.4473 1.76605C7.67747 1.76605 5.24259 2.94038 3.82614 4.96898C2.82297 6.40571 2.40667 8.15763 2.40667 9.81943C2.40667 14.6026 4.63892 18.5917 10.1051 18.5917C14.746 18.5917 16.8908 16.5513 16.8733 12.1415C17.1647 7.61206 15.4398 5.55276 11.4473 5.55276C8.4647 5.55276 6.93821 6.5583 6.30456 8.27287C6.04691 8.97003 5.96616 9.62329 5.96535 10.5067L5.97025 11.0266C5.97025 12.7786 7.55725 14.938 10.1051 14.938C11.3802 14.938 12.4532 13.7412 12.7432 12.121C13.0143 10.6071 12.4923 9.61113 11.4473 9.61113C11.3503 9.61113 11.2585 9.6122 11.1718 9.61454L10.9267 9.62559C9.96891 9.68931 9.79801 9.98474 10.3261 10.9192L10.4663 11.1559L10.6329 11.4185L10.8259 11.708L9.38422 12.6868C7.4563 9.84719 8.22441 7.86853 11.4473 7.86853C13.7909 7.86853 14.897 9.97902 14.4586 12.4281C14.0343 14.7978 12.3462 16.6806 10.1051 16.6806C6.53594 16.6806 4.3232 13.7731 4.23066 11.1943L4.225 10.8054C4.20634 9.58066 4.29299 8.68892 4.67 7.66879C5.56299 5.25248 7.75256 3.81015 11.4473 3.81015C16.4935 3.81015 18.9656 6.7615 18.6141 12.1936C18.6378 17.5309 15.6908 20.3343 10.1051 20.3343C6.34614 20.3343 3.72926 18.7157 2.18363 15.9536C1.12048 14.0537 0.664062 11.7851 0.664062 9.81943C0.664062 7.83152 1.16036 5.74297 2.39736 3.97136C4.15207 1.45829 7.12712 0.0234375 11.4473 0.0234375Z"/>
</symbol><symbol viewBox="0 0 20 15" id="sidebar-catalog__link-icon-10" xmlns="http://www.w3.org/2000/svg">
	<path fill-rule="evenodd" clip-rule="evenodd" d="M5 0H0V2H2V13H0V15H20V13H18V2H20V0H15H5ZM16 2H15V4V6H5V4V2H4V13H16V2ZM13 2H7V4H13V2Z"/>
</symbol><symbol viewBox="0 0 15 21" id="sidebar-catalog__link-icon-11" xmlns="http://www.w3.org/2000/svg">
	<path fill-rule="evenodd" clip-rule="evenodd" d="M2 0H0V21H2L2 17.9836C5.90902 17.7263 9 14.4741 9 10.5C9 9.79945 8.90395 9.12133 8.7243 8.4781L11.7643 6.57267C12.1044 6.84033 12.5336 7 13 7C14.1046 7 15 6.10457 15 5C15 3.89543 14.1046 3 13 3C12.0375 3 11.2338 3.67992 11.043 4.58566L7.7107 6.29424C6.44954 4.43551 4.37587 3.17278 2 3.0164L2 0ZM2 5.02242V15.9776C4.80325 15.725 7 13.369 7 10.5C7 7.63098 4.80325 5.27504 2 5.02242Z"/>
</symbol><symbol viewBox="0 0 18 23" id="sidebar-catalog__link-icon-12" xmlns="http://www.w3.org/2000/svg">
	<path fill-rule="evenodd" clip-rule="evenodd" d="M15 0H0V0.434783V2V2.65217V5.08203H0.0177046L0.00491675 5.09896L3 7.36898V16.2292L2.96617 16.2566L0.12735 18.5554L0 18.6437V18.65V19V19.1094V19.5V19.7924V23H2H13H15V19.2562L18 17V6.39844H17.9868L17.9938 6.3885L15 4.29225V2V0ZM13 5.39844V5.4H13.0023L16 7.47326V8.77544V15.9393L13.0103 18.25H13V18.258L12.9955 18.2614L13 18.2672V19V19.8464V21H2V19.6015L4.99031 17.18L5 17.1797V6.375L4.9879 6.38025L5.01053 6.35178L2 4.08319V2H13V2.65217V5V5.39844Z"/>
</symbol><symbol viewBox="0 0 22 20" id="sidebar-catalog__link-icon-13" xmlns="http://www.w3.org/2000/svg">
	<path fill-rule="evenodd" clip-rule="evenodd" d="M13.5783 2.3332C13.3228 1.90394 12.9641 1.54528 12.5348 1.28977C11.1111 0.442318 9.26996 0.909476 8.42251 2.3332L0.699465 15.3079C0.423183 15.7721 0.277344 16.3022 0.277344 16.8424C0.277344 18.4992 1.62049 19.8424 3.27734 19.8424H18.7234C19.2636 19.8424 19.7937 19.6965 20.2579 19.4202C21.6816 18.5728 22.1488 16.7316 21.3013 15.3079L13.5783 2.3332ZM10.2065 3.2594C10.5105 2.86158 11.0712 2.74605 11.5119 3.00836L11.6146 3.07851C11.7126 3.15478 11.7958 3.24885 11.8597 3.35617L19.5827 16.3309L19.6366 16.4345C19.8413 16.8914 19.6756 17.4393 19.2349 17.7017C19.0802 17.7938 18.9035 17.8424 18.7234 17.8424H3.27734L3.16072 17.8356C2.66338 17.7779 2.27734 17.3552 2.27734 16.8424C2.27734 16.6623 2.32596 16.4856 2.41805 16.3309L10.1411 3.35617L10.2065 3.2594ZM10.0004 6.00236H12.0004V12.0024H10.0004V6.00236ZM12.0004 14.0024H10.0004V16.0024H12.0004V14.0024Z"/>
</symbol><symbol viewBox="0 0 19 21" id="sidebar-catalog__link-icon-14" xmlns="http://www.w3.org/2000/svg">
	<path fill-rule="evenodd" clip-rule="evenodd" d="M5 4.50272C5 3.122 3.88071 2.00272 2.5 2.00272C1.11929 2.00272 0 3.122 0 4.50272C0 5.88343 1.11929 7.00272 2.5 7.00272C2.50757 7.00272 2.51512 7.00268 2.52267 7.00261L8.03424 20.7352L10.7835 20.7656L10.3366 19.7501C11.0439 20.3817 11.9771 20.7656 13 20.7656H19V0.765625H13C10.7909 0.765625 9 2.55649 9 4.76562L9 16.7121L4.36206 6.1709C4.75874 5.72843 5 5.14375 5 4.50272ZM11 16.7656L11 4.76562L11.0055 4.61636C11.0818 3.5815 11.9456 2.76562 13 2.76562H17V18.7656H13L12.8507 18.7601C11.8159 18.6838 11 17.82 11 16.7656Z"/>
</symbol><symbol viewBox="0 0 22 22" id="sidebar-catalog__link-icon-15" xmlns="http://www.w3.org/2000/svg">
	<path fill-rule="evenodd" clip-rule="evenodd" d="M11.8133 2C13.7408 3.99073 15 7.27968 15 11C15 12.04 14.9016 13.0463 14.7177 14H19.6772C19.885 13.0678 20 12.0597 20 11C20 6.20367 17.6435 2.46461 15 2.04018V2H11.8133ZM11.8133 20C12.808 18.9727 13.6247 17.5996 14.1822 16H19.0456C18.1162 18.2107 16.6114 19.7011 15 19.9598V20H11.8133ZM7 21.9759V22H7.5H15V21.9759C18.909 21.5986 22 16.8287 22 11C22 5.17129 18.909 0.401419 15 0.0240566V0H7.5H7V0.0240567C3.09098 0.40142 0 5.17129 0 11C0 16.8287 3.09098 21.5986 7 21.9759ZM7.5 20C10.3389 20 13 16.097 13 11C13 5.90301 10.3389 2 7.5 2C4.66114 2 2 5.90301 2 11C2 16.097 4.66114 20 7.5 20ZM7.5 6C5.19015 6 4 8.3803 4 11C4 13.6197 5.19015 16 7.5 16C9.80985 16 11 13.6197 11 11C11 8.3803 9.80985 6 7.5 6ZM7.5 8C8.32843 8 9 9.34315 9 11C9 12.6569 8.32843 14 7.5 14C6.67157 14 6 12.6569 6 11C6 9.34315 6.67157 8 7.5 8Z"/>
</symbol><symbol viewBox="0 0 23 19" id="sidebar-catalog__link-icon-16" xmlns="http://www.w3.org/2000/svg">
	<path fill-rule="evenodd" clip-rule="evenodd" d="M11.4956 0C15.0736 0 18.1174 2.28667 19.2455 5.47832H23V7.66965H18.6174L16.8811 5.47832H16.8647C15.8672 3.52712 13.8374 2.19133 11.4956 2.19133C9.15379 2.19133 7.12397 3.52712 6.12653 5.47832H6.1168L4.38056 7.66965H0.09375V5.47832H3.74571C4.8738 2.28667 7.91766 0 11.4956 0ZM11.4956 5.47832C15.0736 5.47832 18.1174 7.765 19.2455 10.9566H23V13.148H18.6174L16.8811 10.9566H16.8647C15.8672 9.00545 13.8374 7.66965 11.4956 7.66965C9.15379 7.66965 7.12397 9.00545 6.12653 10.9566H6.1168L4.38056 13.148H0.09375V10.9566H3.74571C4.8738 7.765 7.91766 5.47832 11.4956 5.47832ZM19.2455 16.435C18.1174 13.2433 15.0736 10.9566 11.4956 10.9566C7.91766 10.9566 4.8738 13.2433 3.74571 16.435H0.09375V18.6263H4.38056L6.1168 16.435H6.12653C7.12397 14.4838 9.15379 13.148 11.4956 13.148C13.8374 13.148 15.8672 14.4838 16.8647 16.435H16.8811L18.6174 18.6263H23V16.435H19.2455Z"/>
</symbol><symbol viewBox="0 0 18 21" id="sidebar-catalog__link-icon-17" xmlns="http://www.w3.org/2000/svg">
	<path fill-rule="evenodd" clip-rule="evenodd" d="M18 0H0V2V19V21H18V19V2V0ZM16 2H2V19H16V2ZM4 11H6V13H4V11ZM14 14C14 12.3431 12.6569 11 11 11C9.34315 11 8 12.3431 8 14C8 15.6569 9.34315 17 11 17C12.6569 17 14 15.6569 14 14ZM10 14C10 13.4477 10.4477 13 11 13C11.5523 13 12 13.4477 12 14C12 14.5523 11.5523 15 11 15C10.4477 15 10 14.5523 10 14ZM4 15H6V17H4V15Z"/>
</symbol><symbol viewBox="0 0 20 21" id="sidebar-catalog__link-icon-18" xmlns="http://www.w3.org/2000/svg">
	<path fill-rule="evenodd" clip-rule="evenodd" d="M13 0C16.866 0 20 3.13401 20 7V21H16H14H6H4H0V7C0 3.13401 3.13401 0 7 0H13ZM6 19V10H4V19H2V7L2.00462 6.78311C2.07286 5.1841 2.8921 3.77957 4.1186 2.91323C4.72551 5.23856 7.55048 7 10 7C12.4495 7 15.2745 5.23856 15.8814 2.91323C17.1631 3.81853 18 5.31153 18 7V19H16V10H14V19H6ZM13.9972 2.09945C13.7435 2.04811 13.4829 2.01597 13.2169 2.00462L13 2H7C6.65853 2 6.32505 2.03423 6.00281 2.09945C6.09385 3.71027 8.37642 5 10 5C11.6236 5 13.9061 3.71027 13.9972 2.09945Z"/>
</symbol><symbol viewBox="0 0 21 21" id="sidebar-catalog__link-icon-19" xmlns="http://www.w3.org/2000/svg">
	<path fill-rule="evenodd" clip-rule="evenodd" d="M17 0C19.2091 0 21 1.79086 21 4V17C21 19.2091 19.2091 21 17 21H4C1.79086 21 0 19.2091 0 17V4C0 1.79086 1.79086 0 4 0H17ZM17 2H4C2.94564 2 2.08183 2.81588 2.00549 3.85074L2 4V17C2 18.0544 2.81588 18.9182 3.85074 18.9945L4 19H17C18.0544 19 18.9182 18.1841 18.9945 17.1493L19 17V4C19 2.94564 18.1841 2.08183 17.1493 2.00549L17 2ZM7.5 9C6.67157 9 6 9.67157 6 10.5C6 11.3284 6.67157 12 7.5 12C8.32843 12 9 11.3284 9 10.5C9 9.67157 8.32843 9 7.5 9ZM12 10.5C12 9.67157 12.6716 9 13.5 9C14.3284 9 15 9.67157 15 10.5C15 11.3284 14.3284 12 13.5 12C12.6716 12 12 11.3284 12 10.5ZM10.5 3C14.6421 3 18 6.35786 18 10.5C18 14.6421 14.6421 18 10.5 18C6.35786 18 3 14.6421 3 10.5C3 6.35786 6.35786 3 10.5 3ZM10.5 5C7.46243 5 5 7.46243 5 10.5C5 13.5376 7.46243 16 10.5 16C13.5376 16 16 13.5376 16 10.5C16 7.46243 13.5376 5 10.5 5Z"/>
</symbol><symbol viewBox="0 0 20 20" id="sidebar-catalog__link-icon-2" xmlns="http://www.w3.org/2000/svg">
	<path fill-rule="evenodd" clip-rule="evenodd" d="M10 0C15.5228 0 20 4.47715 20 10C20 15.5228 15.5228 20 10 20C4.47715 20 0 15.5228 0 10C0 4.47715 4.47715 0 10 0ZM10 2C5.58172 2 2 5.58172 2 10C2 14.4183 5.58172 18 10 18C14.4183 18 18 14.4183 18 10C18 5.58172 14.4183 2 10 2ZM7.73998 5.42919L9.67183 4.91155L10.7071 8.77526L14.5708 7.73998L15.0884 9.67183L11.2247 10.7071L12.26 14.5708L10.3282 15.0884L9.29289 11.2247L5.42919 12.26L4.91155 10.3282L8.77526 9.29289L7.73998 5.42919Z"/>
</symbol><symbol viewBox="0 0 20 22" id="sidebar-catalog__link-icon-3" xmlns="http://www.w3.org/2000/svg">
	<path fill-rule="evenodd" clip-rule="evenodd" d="M2 0H0V2V16V18V22H2V18H9H11H18V22H20V18V16V2V0H18H11H9H2ZM18 16V2H11V8H13V10H11V16H18ZM9 16V10H7V8H9V2H2V16H9Z"/>
</symbol><symbol viewBox="0 0 15 24" id="sidebar-catalog__link-icon-4" xmlns="http://www.w3.org/2000/svg">
	<path fill-rule="evenodd" clip-rule="evenodd" d="M15 0H0V2V22V24H15V22V2V0ZM13 2H2V22H13V2ZM11 14H9V16H11V14ZM9 18H11V20H9V18ZM6 5H4V7H6V5ZM4 18H6V20H4V18ZM11 5H9V12H11V5ZM4 9H6V16H4V9Z"/>
</symbol><symbol viewBox="0 0 19 23" id="sidebar-catalog__link-icon-5" xmlns="http://www.w3.org/2000/svg">
	<path fill-rule="evenodd" clip-rule="evenodd" d="M0 9.28947C0 4.15904 4.15904 0 9.28947 0C14.4199 0 18.5789 4.15904 18.5789 9.28947C18.5789 12.9743 16.4137 16.2475 13.1567 17.7382L13.052 17.784L13.0526 19.2368C13.0526 21.2502 11.4715 22.8943 9.48313 22.9951L9.28947 23C7.21114 23 5.52632 21.3152 5.52632 19.237L5.526 17.784L5.42223 17.7382C2.24875 16.2857 0.111756 13.141 0.0042526 9.57209L0 9.28947ZM16.5789 9.28947C16.5789 5.26361 13.3153 2 9.28947 2C5.26361 2 2 5.26361 2 9.28947C2 12.4036 3.97083 15.1433 6.8593 16.1643L7.52591 16.4L7.52632 19.2368C7.52632 20.2106 8.31571 21 9.28947 21C10.2632 21 11.0526 20.2106 11.0526 19.2367L11.053 16.4L11.7197 16.1643C14.6081 15.1433 16.5789 12.4036 16.5789 9.28947ZM8 7L9 13H7L6 7H8ZM12 13L13 7H11L10 13H12Z"/>
</symbol><symbol viewBox="0 0 17 21" id="sidebar-catalog__link-icon-6" xmlns="http://www.w3.org/2000/svg">
	<path fill-rule="evenodd" clip-rule="evenodd" d="M17 0L0 3.66667V6L17 2.33333V0ZM17 5L0 8.66667V11L17 7.33333V5ZM0 13.6667L17 10V12.3333L0 16V13.6667ZM17 15L0 18.6667V21L17 17.3333V15Z"/>
</symbol><symbol viewBox="0 0 14 17" id="sidebar-catalog__link-icon-7" xmlns="http://www.w3.org/2000/svg">
	<path fill-rule="evenodd" clip-rule="evenodd" d="M4 2L6 0H8L10 2V4V4.0571C10 4.71512 10.6399 5.26994 11.4079 5.93574C12.5599 6.93455 14 8.18313 14 10.4047V17H12V11.4384C12 9.22935 10.5733 7.98292 9.42403 6.97885C8.64893 6.30168 8 5.73475 8 5.0571V4V2H6V4V5.0571C6 5.73063 5.34476 6.29479 4.56459 6.96652C3.39594 7.97272 1.94696 9.22029 2 11.4384C2.07684 14.6518 2 17 2 17H0V10.4047C0 8.18313 1.44012 6.93455 2.59214 5.93574C3.36008 5.26994 4 4.71512 4 4.0571V4V2Z"/>
</symbol><symbol viewBox="0 0 14 20" id="sidebar-catalog__link-icon-8" xmlns="http://www.w3.org/2000/svg">
	<path fill-rule="evenodd" clip-rule="evenodd" d="M7 2H3C2.44772 2 2 2.44772 2 3V4C2 4.55228 2.44772 5 3 5H7C7.55228 5 8 4.55228 8 4V3C8 2.44772 7.55228 2 7 2ZM7 7C7.35064 7 7.68722 6.93985 8 6.82929V10H5L4.88338 9.99327C4.38604 9.93551 4 9.51284 4 9H2V8V6.82929C2.31278 6.93985 2.64936 7 3 7H7ZM2 13H4C4 13.5128 4.38604 13.9355 4.88338 13.9933L5 14H8V12H5C3.34315 12 2 10.6569 2 9V10V12V13ZM2 14V13C2 14.6569 3.34315 16 5 16H8V17L7.99327 17.1166C7.93551 17.614 7.51284 18 7 18H3L2.88338 17.9933C2.38604 17.9355 2 17.5128 2 17V14ZM0 14V12V10V8V4V3C0 1.34315 1.34315 0 3 0H7C8.65685 0 10 1.34315 10 3V4V9H12C12 10.3062 11.1652 11.4175 10 11.8293V13H12C12 14.3062 11.1652 15.4175 10 15.8293V17C10 18.6569 8.65685 20 7 20H3C1.34315 20 0 18.6569 0 17V14ZM12 13V12H14V14H12V13ZM12 9V8H14V10H12V9Z"/>
</symbol><symbol viewBox="0 0 20 20" id="sidebar-catalog__link-icon-9" xmlns="http://www.w3.org/2000/svg">
	<path fill-rule="evenodd" clip-rule="evenodd" d="M20 10C20 4.47715 15.5228 0 10 0C4.47715 0 0 4.47715 0 10C0 15.5228 4.47715 20 10 20C15.5228 20 20 15.5228 20 10ZM2 10C2 5.58172 5.58172 2 10 2C14.4183 2 18 5.58172 18 10H2ZM2.25203 12C2.08751 11.3608 2 10.6906 2 10V12H2.25203ZM6 12H2.25203C3.14012 15.4505 6.27232 18 10 18C13.7277 18 16.8599 15.4505 17.748 12H19V10H18C18 10.6906 17.9125 11.3608 17.748 12H14V14H6V12ZM8 6H6V8H8V6ZM11 6V8H9V6H11ZM14 6H12V8H14V6Z"/>
</symbol></svg>