<svg width="32" height="32" viewBox="0 0 32 32" fill="none" xmlns="http://www.w3.org/2000/svg">
<path d="M4 8H6.66667H28" stroke="#0050AC" stroke-width="2" stroke-linecap="round" stroke-linejoin="round"/>
<path d="M25.3307 8.00008V26.6667C25.3307 27.374 25.0498 28.0523 24.5497 28.5524C24.0496 29.0525 23.3713 29.3334 22.6641 29.3334H9.33073C8.62349 29.3334 7.94521 29.0525 7.44511 28.5524C6.94501 28.0523 6.66406 27.374 6.66406 26.6667V8.00008M10.6641 8.00008V5.33341C10.6641 4.62617 10.945 3.94789 11.4451 3.4478C11.9452 2.9477 12.6235 2.66675 13.3307 2.66675H18.6641C19.3713 2.66675 20.0496 2.9477 20.5497 3.4478C21.0498 3.94789 21.3307 4.62617 21.3307 5.33341V8.00008" stroke="#0050AC" stroke-width="2" stroke-linecap="round" stroke-linejoin="round"/>
<path d="M13.3359 14.6667V22.6667" stroke="#0050AC" stroke-width="2" stroke-linecap="round" stroke-linejoin="round"/>
<path d="M18.6641 14.6667V22.6667" stroke="#0050AC" stroke-width="2" stroke-linecap="round" stroke-linejoin="round"/>
</svg>
