<svg width="17" height="14" viewBox="0 0 17 14" fill="none" xmlns="http://www.w3.org/2000/svg">
<g clip-path="url(#clip0_312_3474)">
<path fill-rule="evenodd" clip-rule="evenodd" d="M8.44528 5.20008L3.52028 0.934082H13.2623L8.44528 5.20008ZM8.44528 7.20008L1.62028 1.08008C1.24919 1.22857 0.931096 1.48484 0.707043 1.81584C0.48299 2.14684 0.363254 2.53738 0.363281 2.93708V11.0671C0.363281 11.5975 0.573995 12.1062 0.949068 12.4813C1.32414 12.8564 1.83285 13.0671 2.36328 13.0671H14.3633C14.8937 13.0671 15.4024 12.8564 15.7775 12.4813C16.1526 12.1062 16.3633 11.5975 16.3633 11.0671V2.93708C16.3634 2.54297 16.2472 2.15759 16.029 1.82934C15.8109 1.50109 15.5007 1.2446 15.1373 1.09208L8.44528 7.20008Z" fill="#409AFF"/>
</g>
<defs>
<clipPath id="clip0_312_3474">
<rect width="17" height="14" fill="white"/>
</clipPath>
</defs>
</svg>
