<svg width="23" height="23" viewBox="0 0 23 23" fill="none" xmlns="http://www.w3.org/2000/svg">
<g clip-path="url(#clip0_286_5251)">
<path fill-rule="evenodd" clip-rule="evenodd" d="M14.9702 4.22495C16.3951 5.64996 17.1955 7.58263 17.1954 9.5978C17.1953 11.613 16.3947 13.5456 14.9697 14.9705C13.5447 16.3953 11.612 17.1958 9.59685 17.1957C7.58168 17.1956 5.64908 16.395 4.22421 14.97C2.79933 13.5449 1.9989 11.6123 1.99899 9.5971C1.99908 7.58192 2.7997 5.64933 4.22471 4.22445C5.64971 2.79958 7.58239 1.99914 9.59756 1.99923C11.6127 1.99933 13.5453 2.79994 14.9702 4.22495ZM17.0962 15.588C20.1142 11.82 19.8762 6.30395 16.3832 2.81095C14.5833 1.01119 12.1422 0.000150352 9.59685 0.000244147C7.05152 0.000337942 4.61047 1.01156 2.81071 2.81145C1.01095 4.61134 -9.37349e-05 7.05247 6.51803e-09 9.5978C9.37479e-05 12.1431 1.01132 14.5842 2.81121 16.384C6.30421 19.877 11.8212 20.114 15.5882 17.096L20.2012 21.709C20.2941 21.8019 20.4044 21.8757 20.5258 21.926C20.6472 21.9763 20.7773 22.0022 20.9087 22.0022C21.0401 22.0022 21.1702 21.9763 21.2916 21.926C21.413 21.8757 21.5233 21.8019 21.6162 21.709L21.7092 21.615C21.8967 21.4274 22.002 21.1731 22.002 20.908C22.002 20.6428 21.8967 20.3885 21.7092 20.201L17.0962 15.588Z" fill="#004FA6"/>
</g>
<defs>
<clipPath id="clip0_286_5251">
<rect width="23" height="23" fill="white"/>
</clipPath>
</defs>
</svg>
