<svg width="16" height="18" viewBox="0 0 16 18" fill="none" xmlns="http://www.w3.org/2000/svg">
<path fill-rule="evenodd" clip-rule="evenodd" d="M3.31637 7.94825L6.34281 2.72129C6.19721 2.45843 6.11411 2.15575 6.11411 1.83424C6.11411 0.821738 6.93584 0 7.94834 0C8.96084 0 9.78258 0.821738 9.78258 1.83424C9.78258 2.15947 9.69755 2.46517 9.54907 2.72994L12.3084 7.94825H14.0625C14.5491 7.94825 15.0156 8.14151 15.3593 8.4857C15.7035 8.82935 15.8967 9.2958 15.8967 9.78249V15.8966C15.8967 16.3833 15.7035 16.8497 15.3593 17.1934C15.0156 17.5376 14.5492 17.7308 14.0625 17.7308H1.83424C1.34759 17.7308 0.881094 17.5376 0.537449 17.1934C0.193248 16.8497 0 16.3833 0 15.8966V9.78249C0 9.29584 0.193255 8.82934 0.537449 8.4857C0.881097 8.1415 1.34755 7.94825 1.83424 7.94825H3.31637ZM5.07049 13.2717L6.90473 15.106C7.02633 15.2277 7.19324 15.2925 7.36451 15.2846C7.5362 15.2766 7.69642 15.1971 7.80654 15.065L10.8636 11.3965C11.0801 11.1374 11.0446 10.7516 10.7853 10.5356C10.5261 10.3192 10.1403 10.3547 9.92436 10.614L7.29599 13.7682L5.93492 12.4073C5.69649 12.1687 5.3089 12.1687 5.07049 12.4073C4.83193 12.6457 4.83193 13.0333 5.07049 13.2717L5.07049 13.2717ZM4.72929 7.94825L7.28003 3.54224L7.27989 3.54254C7.48721 3.62388 7.71279 3.66851 7.94822 3.66851C8.17748 3.66851 8.39695 3.62634 8.59879 3.54923L10.9252 7.94825H4.72929Z" fill="#48A4FF"/>
</svg>
